<svg version="1.1" viewBox="0 0 32 32" xmlns="http://www.w3.org/2000/svg">
 <style id="current-color-scheme" type="text/css">.ColorScheme-NegativeText {
            color:#da4453;
        }</style>
 <path d="m5.2793 4c-0.70912 0-1.2793 0.57018-1.2793 1.2793v21.441c0 0.70912 0.57018 1.2793 1.2793 1.2793h21.441c0.70912 0 1.2793-0.57018 1.2793-1.2793v-21.441c0-0.70912-0.57018-1.2793-1.2793-1.2793h-21.441zm5.2695 6.0723a0.5 0.5 0 0 1 0.20312 0.035156 0.5 0.5 0 0 1 0.17383 0.11133v0.001953l5.0742 5.0723 5.0742-5.0723v-0.001953a0.5 0.5 0 0 1 0.33008-0.14648 0.5 0.5 0 0 1 0.37695 0.14453 0.5 0.5 0 0 1 0.14648 0.35742 0.5 0.5 0 0 1-0.037109 0.18555c-2.42e-4 6.04e-4 2.45e-4 0.001349 0 0.001953a0.5 0.5 0 0 1 0 0.001953 0.5 0.5 0 0 1-0.10352 0.15625 0.5 0.5 0 0 1-0.005859 0.005859c-3.99e-4 4.02e-4 4e-4 0.001553 0 0.001953l-5.0742 5.0723 5.0742 5.0723v0.001953a0.5 0.5 0 0 1 0.009766 0.011719 0.5 0.5 0 0 1 0.097656 0.14844c5.44e-4 0.001309 0.001421 0.002594 0.001953 0.003906a0.5 0.5 0 0 1 0 0.003907 0.5 0.5 0 0 1 0.037109 0.18359 0.5 0.5 0 0 1-0.14648 0.35742 0.5 0.5 0 0 1-0.70703-0.001953v-0.001953l-5.0742-5.0723-5.0742 5.0723v0.001953a0.5 0.5 0 0 1-0.70703 0.001953 0.5 0.5 0 0 1-0.14648-0.35742 0.5 0.5 0 0 1 0.037109-0.18555c4.4e-4 -0.001098-4.48e-4 -0.00281 0-0.003906a0.5 0.5 0 0 1 0.10352-0.15625c0.001943-0.002023 0.003875-0.003861 0.005859-0.005859v-0.001953l5.0742-5.0723-5.0742-5.0723c-4e-4 -4e-4 3.99e-4 -0.001551 0-0.001953a0.5 0.5 0 0 1-0.009766-0.011719 0.5 0.5 0 0 1-0.097656-0.14844 0.5 0.5 0 0 1 0-0.001953c-8.32e-4 -0.002022-0.001148-0.003829-0.001953-0.00586a0.5 0.5 0 0 1-0.037109-0.18359 0.5 0.5 0 0 1 0.14648-0.35742 0.5 0.5 0 0 1 0.33008-0.14453z" class="ColorScheme-NegativeText" fill="currentColor"/>
</svg>
