<svg version="1.1" viewBox="0 0 32 32" xmlns="http://www.w3.org/2000/svg">
 <style id="current-color-scheme" type="text/css">.ColorScheme-NegativeText {
            color:#da4453;
        }</style>
 <path d="m8 6c-1.108 0-2 0.892-2 2v16c0 1.108 0.892 2 2 2h16c1.108 0 2-0.892 2-2v-16c0-1.108-0.892-2-2-2h-16zm1.7852 2.8574a0.92693 0.92664 0 0 1 0.0019532 0 0.92693 0.92664 0 0 1 0.6543 0.27344l5.5586 5.5566 5.5586-5.5566a0.92693 0.92664 0 0 1 0.6582-0.27148 0.92693 0.92664 0 0 1 0.6543 0.27148 0.92693 0.92664 0 0 1 0 1.3105l-5.5605 5.5566 5.5605 5.5605a0.92693 0.92664 0 0 1 0 1.3125 0.92693 0.92664 0 0 1-1.3125 0l-5.5586-5.5586-5.5586 5.5586a0.92693 0.92664 0 0 1-1.3125 0 0.92693 0.92664 0 0 1 0-1.3125l5.5605-5.5605-5.5605-5.5566a0.92693 0.92664 0 0 1 0-1.3105 0.92693 0.92664 0 0 1 0.65625-0.27344z" class="ColorScheme-NegativeText" fill="currentColor"/>
</svg>
