<svg version="1.1" viewBox="0 0 32 32" xmlns="http://www.w3.org/2000/svg">
 <style id="current-color-scheme" type="text/css">.ColorScheme-NegativeText {
            color:#da4453;
        }</style>
 <path d="m8 4c-2.216 0-4 1.784-4 4v16c0 2.216 1.784 4 4 4h16c2.216 0 4-1.784 4-4v-16c0-2.216-1.784-4-4-4h-16zm0.029297 3a1 1 0 0 1 0.67773 0.29297l7.293 7.293 7.293-7.293a1 1 0 0 1 0.73633-0.29297 1 1 0 0 1 0.67773 0.29297 1 1 0 0 1 0 1.4141l-7.293 7.293 7.293 7.293a1 1 0 0 1 0 1.4141 1 1 0 0 1-1.4141 0l-7.293-7.293-7.293 7.293a1 1 0 0 1-1.4141 0 1 1 0 0 1 0-1.4141l7.293-7.293-7.293-7.293a1 1 0 0 1 0-1.4141 1 1 0 0 1 0.73633-0.29297z"  class="ColorScheme-NegativeText" fill="currentColor"/>
</svg>
