<svg version="1.1" viewBox="0 0 32 32" xmlns="http://www.w3.org/2000/svg">
 <style id="current-color-scheme" type="text/css">.ColorScheme-NegativeText {
            color:#da4453;
        }</style>
 <path d="m16 4a12 12 0 0 0-12 12 12 12 0 0 0 12 12 12 12 0 0 0 12-12 12 12 0 0 0-12-12zm-5.4512 6.0742a0.5 0.5 0 0 1 0.37695 0.14648l5.0742 5.0723 5.0742-5.0723a0.5 0.5 0 0 1 0.33008-0.14648 0.5 0.5 0 0 1 0.37695 0.14648 0.5 0.5 0 0 1 0 0.70703l-5.0742 5.0723 5.0742 5.0723a0.5 0.5 0 0 1 0 0.70703 0.5 0.5 0 0 1-0.70703 0l-5.0742-5.0723-5.0742 5.0723a0.5 0.5 0 0 1-0.70703 0 0.5 0.5 0 0 1 0-0.70703l5.0742-5.0723-5.0742-5.0723a0.5 0.5 0 0 1 0-0.70703 0.5 0.5 0 0 1 0.33008-0.14648z" class="ColorScheme-NegativeText" fill="currentColor"/>
</svg>
