<svg version="1.1" viewBox="0 0 32 32" xmlns="http://www.w3.org/2000/svg">
 <style id="current-color-scheme" type="text/css">.ColorScheme-NegativeText {
            color:#da4453;
        }</style>
 <path d="m16 4a12 12 0 0 0-12 12 12 12 0 0 0 12 12 12 12 0 0 0 12-12 12 12 0 0 0-12-12zm-5.4805 5.5742a1 1 0 0 1 0.76172 0.29297l4.7188 4.7188 4.7188-4.7188a1 1 0 0 1 0.65234-0.29297 1 1 0 0 1 0.76172 0.29297 1 1 0 0 1 0 1.4141l-4.7188 4.7188 4.7188 4.7188a1 1 0 0 1 0 1.4141 1 1 0 0 1-1.4141 0l-4.7188-4.7188-4.7188 4.7188a1 1 0 0 1-1.4141 0 1 1 0 0 1 0-1.4141l4.7188-4.7188-4.7188-4.7188a1 1 0 0 1 0-1.4141 1 1 0 0 1 0.65234-0.29297z" class="ColorScheme-NegativeText" fill="currentColor"/>
</svg>
