<?xml version="1.0" encoding="UTF-8"?>
<svg version="1.1" viewBox="0 0 32 32" xmlns="http://www.w3.org/2000/svg">
    <style
        type="text/css"
        id="current-color-scheme">
        .ColorScheme-NegativeText {
            color:#da4453;
        }
    </style>
 <path d="m16 4a12 12 0 0 0-12 12 12 12 0 0 0 12 12 12 12 0 0 0 12-12 12 12 0 0 0-12-12zm-6.3125 5.1777a0.56256 0.56256 0 0 1 0.4043 0.16797l5.9082 5.8613 5.9082-5.8613a0.56279 0.56279 0 0 1 0.79297 0.79883l-5.9023 5.8555 5.9023 5.8555a0.56279 0.56279 0 1 1-0.79297 0.79883l-5.9082-5.8613-5.9082 5.8613a0.56279 0.56279 0 1 1-0.79297-0.79883l5.9023-5.8555-5.9023-5.8555a0.56256 0.56256 0 0 1 0.38867-0.9668z"  class="ColorScheme-NegativeText" fill="currentColor"/>
</svg>
