<svg version="1.1" viewBox="0 0 32 32" xmlns="http://www.w3.org/2000/svg">
 <style id="current-color-scheme" type="text/css">.ColorScheme-NegativeText {
            color:#da4453;
        }</style>
 <path d="m5.2793 4c-0.70912 0-1.2793 0.57018-1.2793 1.2793v21.441c0 0.70912 0.57018 1.2793 1.2793 1.2793h21.441c0.70912 0 1.2793-0.57018 1.2793-1.2793v-21.441c0-0.70912-0.57018-1.2793-1.2793-1.2793h-21.441zm5.2695 5.5195a1 1 0 0 1 0.67773 0.29297l4.7734 4.7734 4.7734-4.7734a1 1 0 0 1 0.65039-0.29102 1 1 0 0 1 0.085938-0.0019532 1 1 0 0 1 0.67773 0.29297 1 1 0 0 1 0 1.4141l-4.7734 4.7734 4.7734 4.7734a1 1 0 0 1 0 1.4141 1 1 0 0 1-1.4141 0l-4.7734-4.7734-4.7734 4.7734a1 1 0 0 1-1.4141 0 1 1 0 0 1 0-1.4141l4.7734-4.7734-4.7734-4.7734a1 1 0 0 1 0-1.4141 1 1 0 0 1 0.65234-0.29102 1 1 0 0 1 0.083984-0.0019532z" class="ColorScheme-NegativeText" fill="currentColor"/>
</svg>
