<svg version="1.1" viewBox="0 0 16 16" xmlns="http://www.w3.org/2000/svg">
 <style id="current-color-scheme" type="text/css">.ColorScheme-Text {
            color:#232629;
        }</style>
 <g class="ColorScheme-Text" fill="currentColor">
  <path d="m3.1816 12.086v1h11.107v-1z"/>
  <path d="m8.7773 7.9297v1h5.4883v-1z"/>
  <path d="m8.7305 4.1016v1h5.584v-1z"/>
  <path d="m3.1211 1.6538v9h1v-9z"/>
  <path d="m6.248 7.4355c-0.14521-0.007238-0.28638 0.049088-0.38672 0.1543l-2.6016 2.7207c-0.19096 0.19954-0.18397 0.51612 0.015625 0.70703 0.19954 0.19096 0.51612 0.18396 0.70703-0.01563l2.6016-2.7207c0.19096-0.19954 0.18397-0.51612-0.015625-0.70703-0.086646-0.083199-0.20035-0.13242-0.32031-0.13867z"/>
  <path d="m1.0059 7.4355c-0.12405 0.0034176-0.2424 0.052844-0.33203 0.13867-0.19959 0.19091-0.20659 0.50749-0.015625 0.70703l2.6016 2.7207c0.19091 0.19959 0.50749 0.20659 0.70703 0.01563 0.19959-0.19091 0.20659-0.50749 0.015625-0.70703l-2.6016-2.7207c-0.097597-0.10209-0.23382-0.15814-0.375-0.1543z"/>
 </g>
</svg>
