<?xml version="1.0" encoding="UTF-8"?>
<svg version="1.1" viewBox="0 0 16 16" xmlns="http://www.w3.org/2000/svg">
 <style id="current-color-scheme" type="text/css">.ColorScheme-Text {
            color:#232629;
        }</style>
 <g class="ColorScheme-Text" fill="currentColor">
  <path d="m11.861 4.63v8.8242h1v-8.8242h-1"/>
  <path d="m2.8789 2.54v1h9.873v-1h-9.873"/>
  <path d="m2.9004 6.65v1h4.8789v-1h-4.8789"/>
  <path d="m2.8574 10.49v1h4.9629v-1h-4.9629"/>
  <path d="m12.342 4.25c-0.1302 0.006171-0.25284 0.062935-0.3418 0.1582 0 0-2.3125 2.418-2.3125 2.418-0.19093 0.19956-0.18393 0.51611 0.015625 0.70703 0.19956 0.19093 0.51611 0.18393 0.70703-0.015625l2.3125-2.418c0.14404-0.14687 0.18343-0.36696 0.099285-0.55468s-0.27467-0.30474-0.48015-0.29493"/>
  <path d="m12.367 4.24c-0.20382-0.0047577-0.39012 0.1147-0.47085 0.30192-0.080726 0.18721-0.039711 0.40469 0.10366 0.54964 0 0 2.3125 2.418 2.3125 2.418 0.19093 0.19956 0.50748 0.20655 0.70703 0.015625s0.20655-0.50748 0.015625-0.70703c0 0-2.3125-2.418-2.3125-2.418-0.091941-0.099279-0.22019-0.15706-0.35547-0.16015"/>
 </g>
</svg>
