<svg version="1.1" viewBox="0 0 22 22" xmlns="http://www.w3.org/2000/svg">
 <style id="current-color-scheme" type="text/css">.ColorScheme-NegativeText {
            color:#da4453;
        }</style>
 <path d="m11 3a8 8 0 0 0-8 8 8 8 0 0 0 8 8 8 8 0 0 0 8-8 8 8 0 0 0-8-8zm-3.459 4.0625a0.5 0.5 0 0 1 0.37695 0.14648l3.082 3.084 3.082-3.084a0.5 0.5 0 0 1 0.33008-0.14648 0.5 0.5 0 0 1 0.37695 0.14648 0.5 0.5 0 0 1 0 0.70703l-3.082 3.084 3.082 3.084a0.5 0.5 0 0 1 0 0.70703 0.5 0.5 0 0 1-0.70703 0l-3.082-3.084-3.082 3.084a0.5 0.5 0 0 1-0.70703 0 0.5 0.5 0 0 1 0-0.70703l3.082-3.084-3.082-3.084a0.5 0.5 0 0 1 0-0.70703 0.5 0.5 0 0 1 0.33008-0.14648z"  class="ColorScheme-NegativeText" fill="currentColor"/>
</svg>
