<svg version="1.1" viewBox="0 0 22 22" xmlns="http://www.w3.org/2000/svg">
 <style id="current-color-scheme" type="text/css">.ColorScheme-NegativeText {
            color:#da4453;
        }</style>
 <path d="m5.666 3c-1.4773 0-2.666 1.1887-2.666 2.666v10.668c0 1.4773 1.1887 2.666 2.666 2.666h10.668c1.4773 0 2.666-1.1887 2.666-2.666v-10.668c0-1.4773-1.1887-2.666-2.666-2.666h-10.668zm-0.078125 1.9004a0.7 0.7 0 0 1 0.50781 0.20508l4.9043 4.9043 4.9043-4.9043a0.7 0.7 0 0 1 0.48242-0.20508 0.7 0.7 0 0 1 0.50781 0.20508 0.7 0.7 0 0 1 0 0.99023l-4.9043 4.9043 4.9043 4.9043a0.7 0.7 0 0 1 0 0.99023 0.7 0.7 0 0 1-0.99023 0l-4.9043-4.9043-4.9043 4.9043a0.7 0.7 0 0 1-0.99023 0 0.7 0.7 0 0 1 0-0.99023l4.9043-4.9043-4.9043-4.9043a0.7 0.7 0 0 1 0-0.99023 0.7 0.7 0 0 1 0.48242-0.20508z" class="ColorScheme-NegativeText" fill="currentColor"/>
</svg>
