<svg version="1.1" viewBox="0 0 22 22" xmlns="http://www.w3.org/2000/svg">
 <style id="current-color-scheme" type="text/css">.ColorScheme-Text {
            color:#eff0f1;
        }</style>
 <g class="ColorScheme-Text" fill="currentColor">
  <path d="m3 3v1h15v-1h-15z"/>
  <path d="m3 8v1h7v-1h-7z"/>
  <path d="m3 13v1h7v-1h-7z"/>
  <path d="m3 17.918v1h7v-1h-7z"/>
  <path d="m15.477 6a0.50005 0.50005 0 0 0-0.33008 0.14648l-3 3a0.5 0.5 0 0 0 0 0.70703 0.5 0.5 0 0 0 0.70703 0l2.1465-2.1465v11.293h1v-11.293l2.1465 2.1465a0.5 0.5 0 0 0 0.70703 0 0.5 0.5 0 0 0 0-0.70703l-3-3a0.50005 0.50005 0 0 0-0.37695-0.14648z"/>
 </g>
</svg>
