<svg version="1.1" viewBox="0 0 22 22" xmlns="http://www.w3.org/2000/svg">
 <style id="current-color-scheme" type="text/css">.ColorScheme-NegativeText {
            color:#da4453;
        }</style>
 <path d="m4.2793 3c-0.70912 0-1.2793 0.57018-1.2793 1.2793v13.441c0 0.70912 0.57018 1.2793 1.2793 1.2793h13.441c0.70912 0 1.2793-0.57018 1.2793-1.2793v-13.441c0-0.70912-0.57018-1.2793-1.2793-1.2793h-13.441zm3.2617 4.0625a0.5 0.5 0 0 1 0.37695 0.14648l3.082 3.084 3.082-3.084a0.5 0.5 0 0 1 0.33008-0.14648 0.5 0.5 0 0 1 0.37695 0.14648 0.5 0.5 0 0 1 0 0.70703l-3.082 3.084 3.082 3.084a0.5 0.5 0 0 1 0 0.70703 0.5 0.5 0 0 1-0.70703 0l-3.082-3.084-3.082 3.084a0.5 0.5 0 0 1-0.70703 0 0.5 0.5 0 0 1 0-0.70703l3.082-3.084-3.082-3.084a0.5 0.5 0 0 1 0-0.70703 0.5 0.5 0 0 1 0.33008-0.14648z"  class="ColorScheme-NegativeText" fill="currentColor"/>
</svg>
