<?xml version="1.0" encoding="UTF-8"?>
<svg version="1.1" viewBox="0 0 22 22" xmlns="http://www.w3.org/2000/svg">
 <style id="current-color-scheme" type="text/css">.ColorScheme-Text {
            color:#eff0f1;
        }</style>
 <g class="ColorScheme-Text" fill="currentColor">
  <path d="m3.959 3.72v1h13.576v-1h-13.576"/>
  <path d="m3.9883 9.37v1h6.707v-1h-6.707"/>
  <path d="m3.9297 14.65v1h6.8242v-1h-6.8242"/>
  <path d="m16.498 6.41v12.137h1v-12.137h-1"/>
  <path d="m16.977 6.07c-0.12951 0.0066725-0.25136 0.063396-0.33984 0.1582l-3.1797 3.3242c-0.12413 0.12898-0.16984 0.31447-0.11987 0.48636 0.049973 0.17189 0.18801 0.30396 0.36194 0.34629 0.17393 0.042328 0.35722-0.011542 0.48059-0.14125l3.1797-3.3242c0.14436-0.14711 0.18366-0.36773 0.098994-0.55565-0.084671-0.18792-0.27597-0.30463-0.4818-0.29396l-1e-5 1e-5"/>
  <path d="m16.953 6.07c-0.19382 0.015404-0.36113 0.14176-0.42899 0.32396-0.067856 0.1822-0.023947 0.38722 0.11258 0.52565l3.1797 3.3242c0.12337 0.12971 0.30666 0.18358 0.48059 0.14125 0.17393-0.042328 0.31197-0.1744 0.36194-0.34629 0.049973-0.17189 0.0042556-0.35738-0.11987-0.48636l-3.1797-3.3242c-0.10409-0.1121-0.25376-0.17038-0.40625-0.1582v-1e-5"/>
 </g>
</svg>
