<?xml version="1.0" encoding="UTF-8"?>
<svg version="1.1" viewBox="0 0 22 22" xmlns="http://www.w3.org/2000/svg">
 <style id="current-color-scheme" type="text/css">.ColorScheme-NegativeText {
            color:#da4453;
        }</style>
 <path class="ColorScheme-NegativeText" d="m11 3a8 8 0 0 0-8 8 8 8 0 0 0 8 8 8 8 0 0 0 8-8 8 8 0 0 0-8-8zm4.2012 3.3242a0.50005 0.50005 0 0 1 0.35352 0.86133l-3.8457 3.8145 3.8457 3.8145a0.50005 0.50005 0 1 1-0.70313 0.71094l-3.8516-3.8203-3.8516 3.8203a0.50005 0.50005 0 1 1-0.70312-0.71094l3.8457-3.8145-3.8457-3.8145a0.50005 0.50005 0 0 1 0.34375-0.85938 0.50005 0.50005 0 0 1 0.35938 0.14844l3.8516 3.8203 3.8516-3.8203a0.50005 0.50005 0 0 1 0.34961-0.15039z" fill="currentColor"/>
</svg>
