<svg version="1.1" viewBox="0 0 22 22" xmlns="http://www.w3.org/2000/svg">
 <style id="current-color-scheme" type="text/css">.ColorScheme-Text {
            color:#eff0f1;
        }</style>
 <g class="ColorScheme-Text" fill="currentColor">
  <path d="m4.8691 17.047v1h13.576v-1z"/>
  <path d="m11.707 11.058v1h6.709v-1z"/>
  <path d="m11.65 5.9222v1h6.8242v-1z"/>
  <path d="m4.9062 2.9492v12.137h1v-12.137z"/>
  <path d="m8.5645 11.096a0.50005 0.50005 0 0 0-0.33984 0.1582l-3.1797 3.3242a0.50007 0.50007 0 1 0 0.72266 0.69141l3.1797-3.3242a0.50005 0.50005 0 0 0-0.38281-0.84961z"/>
  <path d="m2.2324 11.1a0.50005 0.50005 0 0 0-0.36719 0.85156l3.1797 3.3242a0.50007 0.50007 0 1 0 0.72266-0.69141l-3.1797-3.3242a0.50005 0.50005 0 0 0-0.35547-0.16016z"/>
 </g>
</svg>
