<svg version="1.1" viewBox="0 0 22 22" xmlns="http://www.w3.org/2000/svg">
 <style id="current-color-scheme" type="text/css">.ColorScheme-NegativeText {
            color:#da4453;
        }</style>
 <path class="ColorScheme-NegativeText" d="m6.0004 4c-1.108 0-2.0004 0.89241-2.0004 2.0004v9.9992c0 1.108 0.89241 2.0004 2.0004 2.0004h9.9992c1.108 0 2.0004-0.89241 2.0004-2.0004v-9.9992c0-1.108-0.89241-2.0004-2.0004-2.0004zm0.64475 1.9861a0.65738 0.6572 0 0 1 0.46485 0.19429l3.9419 3.9405 3.9434-3.9405a0.65738 0.6572 0 0 1 0.46629-0.19285 0.65738 0.6572 0 0 1 0.46342 0.19285 0.65738 0.6572 0 0 1 0 0.92969l-3.9419 3.9419 3.9419 3.9434a0.65738 0.6572 0 0 1 0 0.92969 0.65738 0.6572 0 0 1-0.92969 0l-3.9434-3.9419-3.9419 3.9419a0.65738 0.6572 0 0 1-0.93117 0 0.65738 0.6572 0 0 1 0-0.92969l3.9434-3.9434-3.9434-3.9419a0.65738 0.6572 0 0 1 0-0.92969 0.65738 0.6572 0 0 1 0.46629-0.19429z" fill="currentColor"/>
</svg>
