<svg version="1.1" viewBox="0 0 22 22" xmlns="http://www.w3.org/2000/svg">
 <style id="current-color-scheme" type="text/css">.ColorScheme-NegativeText {
            color:#da4453;
        }</style>
 <path d="m6.2148 4.9336c-0.70912 0-1.2812 0.57213-1.2812 1.2812v9.5703c0 0.70912 0.57213 1.2812 1.2812 1.2812h9.5703c0.70912 0 1.2812-0.57213 1.2812-1.2812v-9.5703c0-0.70912-0.57213-1.2812-1.2812-1.2812h-9.5703zm1.3262 2.127a0.5 0.5 0 0 1 0.37695 0.14648l3.082 3.0859 3.084-3.0859a0.5 0.5 0 0 1 0.33008-0.14648 0.5 0.5 0 0 1 0.37695 0.14648 0.5 0.5 0 0 1 0 0.70703l-3.084 3.0859 3.084 3.0859a0.5 0.5 0 0 1 0 0.70703 0.5 0.5 0 0 1-0.70703-0.001953l-3.084-3.084-3.082 3.084a0.5 0.5 0 0 1-0.70703 0.001953 0.5 0.5 0 0 1 0-0.70703l3.084-3.0859-3.084-3.0859a0.5 0.5 0 0 1 0-0.70703 0.5 0.5 0 0 1 0.33008-0.14648z" class="ColorScheme-NegativeText" fill="currentColor"/>
</svg>
