<svg version="1.1" viewBox="0 0 22 22" xmlns="http://www.w3.org/2000/svg">
 <style id="current-color-scheme" type="text/css">.ColorScheme-Text {
            color:#232629;
        }</style>
 <g class="ColorScheme-Text" fill="currentColor">
  <path d="m3.959 3.9573v1h13.576v-1h-13.576"/>
  <path d="m3.9883 9.0085v1h6.707v-1h-6.707"/>
  <path d="m3.9297 14.951v1h6.8242v-1h-6.8242"/>
  <path d="m16.157 6.41v12.137h1v-12.137h-1"/>
  <path d="m16.636 6.07c-0.12951 0.00667-0.25136 0.063396-0.33984 0.1582l-3.1797 3.3242c-0.12413 0.12898-0.16984 0.31447-0.11987 0.48636s0.18801 0.30396 0.36194 0.34629 0.35722-0.01154 0.48059-0.14125l3.1797-3.3242c0.14436-0.14711 0.18366-0.36773 0.09899-0.55565s-0.27597-0.30463-0.4818-0.29396l-1e-5 1e-5"/>
  <path d="m16.612 6.07c-0.19382 0.015404-0.36113 0.14176-0.42899 0.32396s-0.02395 0.38722 0.11258 0.52565l3.1797 3.3242c0.12337 0.12971 0.30666 0.18358 0.48059 0.14125s0.31197-0.1744 0.36194-0.34629 0.0043-0.35738-0.11987-0.48636l-3.1797-3.3242c-0.10409-0.1121-0.25376-0.17038-0.40625-0.1582v-1e-5"/>
 </g>
</svg>
