<svg version="1.1" viewBox="0 0 22 22" xmlns="http://www.w3.org/2000/svg">
 <style id="current-color-scheme" type="text/css">.ColorScheme-Text {
            color:#232629;
        }</style>
 <g  class="ColorScheme-Text" fill="currentColor">
  <path d="m19 19v-1h-15v1z" color="#232629"/>
  <path d="m19 14v-1h-7v1z" color="#232629"/>
  <path d="m19 9v-1h-7v1z" color="#232629"/>
  <path d="m19 4.082v-1h-7v1z" color="#232629"/>
  <path d="m6.5234 16a0.50005 0.50005 0 0 0 0.33008-0.14648l3-3a0.5 0.5 0 0 0 0-0.70703 0.5 0.5 0 0 0-0.70703 0l-2.1465 2.1465v-11.293h-1v11.293l-2.1465-2.1465a0.5 0.5 0 0 0-0.70703 0 0.5 0.5 0 0 0 0 0.70703l3 3a0.50005 0.50005 0 0 0 0.37695 0.14648z"/>
 </g>
</svg>
