<svg version="1.1" viewBox="0 0 16 16" xmlns="http://www.w3.org/2000/svg">
 <style id="current-color-scheme" type="text/css">.ColorScheme-NegativeText {
            color:#da4453;
        }</style>
 <path d="m8 2a6 6 0 0 0-6 6 6 6 0 0 0 6 6 6 6 0 0 0 6-6 6 6 0 0 0-6-6zm-2.4414 3.0801a0.5 0.5 0 0 1 0.37695 0.14648l2.0645 2.0664 2.0645-2.0664a0.5 0.5 0 0 1 0.33008-0.14648 0.5 0.5 0 0 1 0.37695 0.14648 0.5 0.5 0 0 1 0 0.70703l-2.0645 2.0664 2.0645 2.0664a0.5 0.5 0 0 1 0 0.70703 0.5 0.5 0 0 1-0.70703 0l-2.0645-2.0664-2.0645 2.0664a0.5 0.5 0 0 1-0.70703 0 0.5 0.5 0 0 1 0-0.70703l2.0645-2.0664-2.0645-2.0664a0.5 0.5 0 0 1 0-0.70703 0.5 0.5 0 0 1 0.33008-0.14648z" 
    style="fill:currentColor;fill-opacity:1;stroke:none" 
    class="ColorScheme-NegativeText"/>
</svg>
