<?xml version="1.0" encoding="UTF-8"?>
<svg version="1.1" viewBox="0 0 16 16" xmlns="http://www.w3.org/2000/svg">
    <style id="current-color-scheme" type="text/css">.ColorScheme-NegativeText {
            color:#da4453;
        }</style>
 <path class="ColorScheme-NegativeText" d="m8 2a6 6 0 0 0-6 6 6 6 0 0 0 6 6 6 6 0 0 0 6-6 6 6 0 0 0-6-6zm3.1777 2.4805a0.37504 0.37504 0 0 1 0.23828 0.6582l-2.8848 2.8613 2.8848 2.8613a0.37504 0.37504 0 1 1-0.52734 0.53125l-2.8887-2.8652-2.8887 2.8652a0.37504 0.37504 0 1 1-0.52734-0.53125l2.8848-2.8613-2.8848-2.8613a0.37504 0.37504 0 0 1 0.25781-0.64453 0.37504 0.37504 0 0 1 0.26953 0.11328l2.8887 2.8652 2.8887-2.8652a0.37504 0.37504 0 0 1 0.28906-0.12695z" fill="currentColor"/>
</svg>
