<svg version="1.1" viewBox="0 0 16 16" xmlns="http://www.w3.org/2000/svg">
 <style id="current-color-scheme" type="text/css">.ColorScheme-NegativeText {
            color:#da4453;
        }</style>
 <path d="m4.6172 3.3359c-0.70912 0-1.2812 0.57213-1.2812 1.2812v6.7656c0 0.70912 0.57213 1.2812 1.2812 1.2812h6.7656c0.70912 0 1.2812-0.57213 1.2812-1.2812v-6.7656c0-0.70912-0.57213-1.2812-1.2812-1.2812h-6.7656zm0.93945 1.7461a0.5 0.5 0 0 1 0.37695 0.14453l2.0664 2.0664 2.0664-2.0664a0.5 0.5 0 0 1 0.33008-0.14453 0.5 0.5 0 0 1 0.37695 0.14453 0.5 0.5 0 0 1 0 0.70703l-2.0664 2.0664 2.0664 2.0684a0.5 0.5 0 0 1 0 0.70703 0.5 0.5 0 0 1-0.70703 0l-2.0664-2.0664-2.0664 2.0664a0.5 0.5 0 0 1-0.70703 0 0.5 0.5 0 0 1 0-0.70703l2.0664-2.0684-2.0664-2.0664a0.5 0.5 0 0 1 0-0.70703 0.5 0.5 0 0 1 0.33008-0.14453z" class="ColorScheme-NegativeText" fill="currentColor"/>
</svg>
