<?xml version="1.0" encoding="UTF-8"?>
<svg version="1.1" viewBox="0 0 16 16" xmlns="http://www.w3.org/2000/svg">
    <style
        type="text/css"
        id="current-color-scheme">
        .ColorScheme-Text {
            color:#eff0f1;
        }
    </style>
 <path d="m5.4004 2.7656a0.44449 0.44449 0 0 0-0.44531 0.44531v1.8125h-1.3965c-0.42128 0-0.77539 0.35411-0.77539 0.77539v7.0742c0 0.42128 0.35412 0.77539 0.77539 0.77539h7.2617c0.42128-1e-6 0.77344-0.35411 0.77344-0.77539v-1.7852h1.4883a0.44449 0.44449 0 0 0 0.44531-0.44531v-7.4316a0.44449 0.44449 0 0 0-0.44531-0.44531zm0.44336 0.88867h6.7949v6.5449h-1.0449v-4.4004c0-0.42128-0.35216-0.77539-0.77344-0.77539h-4.9766zm-2.1719 2.2578h7.0332v6.8477h-7.0332z" class="ColorScheme-Text" fill="currentColor" />
</svg>
