<svg version="1.1" viewBox="0 0 16 16" xmlns="http://www.w3.org/2000/svg">
 <style id="current-color-scheme" type="text/css">.ColorScheme-NegativeText {
            color:#da4453;
        }</style>
 <path d="m4.373 3c-0.76021 0-1.373 0.61289-1.373 1.373v7.2539c0 0.76021 0.61289 1.373 1.373 1.373h7.2539c0.76021 0 1.373-0.6129 1.373-1.373v-7.2539c0-0.76021-0.6129-1.373-1.373-1.373h-7.2539zm1.1426 1.9004a0.6 0.6 0 0 1 0.4082 0.17578l2.0762 2.0762 2.0762-2.0762a0.6 0.6 0 0 1 0.43945-0.17578 0.6 0.6 0 0 1 0.4082 0.17578 0.6 0.6 0 0 1 0 0.84766l-2.0762 2.0762 2.0762 2.0762a0.6 0.6 0 0 1 0 0.84766 0.6 0.6 0 0 1-0.84766 0l-2.0762-2.0762-2.0762 2.0762a0.6 0.6 0 0 1-0.84766 0 0.6 0.6 0 0 1 0-0.84766l2.0762-2.0762-2.0762-2.0762a0.6 0.6 0 0 1 0-0.84766 0.6 0.6 0 0 1 0.43945-0.17578z" style="fill:currentColor" class="ColorScheme-NegativeText"/>
</svg>
