<svg version="1.1" viewBox="0 0 16 16" xmlns="http://www.w3.org/2000/svg">
 <style id="current-color-scheme" type="text/css">.ColorScheme-NegativeText {
            color:#da4453;
        }</style>
 <path d="m3.2793 2c-0.70912 0-1.2793 0.57018-1.2793 1.2793v9.4414c0 0.70912 0.57018 1.2793 1.2793 1.2793h9.4414c0.70912 0 1.2793-0.57018 1.2793-1.2793v-9.4414c0-0.70912-0.57018-1.2793-1.2793-1.2793h-9.4414zm2.2793 3.0801a0.5 0.5 0 0 1 0.37695 0.14648l2.0645 2.0664 2.0645-2.0664a0.5 0.5 0 0 1 0.33008-0.14648 0.5 0.5 0 0 1 0.37695 0.14648 0.5 0.5 0 0 1 0 0.70703l-2.0645 2.0664 2.0645 2.0664a0.5 0.5 0 0 1 0 0.70703 0.5 0.5 0 0 1-0.70703 0l-2.0645-2.0664-2.0645 2.0664a0.5 0.5 0 0 1-0.70703 0 0.5 0.5 0 0 1 0-0.70703l2.0645-2.0664-2.0645-2.0664a0.5 0.5 0 0 1 0-0.70703 0.5 0.5 0 0 1 0.33008-0.14648z" fill="#da4453" style="paint-order:stroke fill markers"/>
</svg>
