<svg version="1.1" viewBox="0 0 16 16" xmlns="http://www.w3.org/2000/svg">
 <style id="current-color-scheme" type="text/css">.ColorScheme-NegativeText {
            color:#da4453;
        }</style>
 <path d="m4 2c-1.108 0-2 0.892-2 2v8c0 1.108 0.892 2 2 2h8c1.108 0 2-0.892 2-2v-8c0-1.108-0.892-2-2-2h-8zm0.36523 1.7559a0.6 0.6 0 0 1 0.4082 0.17578l3.2266 3.2168 3.2266-3.2168a0.6 0.6 0 0 1 0.43945-0.17578 0.6 0.6 0 0 1 0.4082 0.17773 0.6 0.6 0 0 1-0.001953 0.84766l-3.2227 3.2148 3.2227 3.2129a0.6 0.6 0 0 1 0.001953 0.84766 0.6 0.6 0 0 1-0.84766 0.001953l-3.2266-3.2168-3.2266 3.2168a0.6 0.6 0 0 1-0.84766-0.001953 0.6 0.6 0 0 1 0.0019532-0.84766l3.2227-3.2129-3.2227-3.2148a0.6 0.6 0 0 1-0.0019532-0.84766 0.6 0.6 0 0 1 0.43945-0.17773z" style="fill:currentColor" class="ColorScheme-NegativeText"/>
</svg>
