<svg version="1.1" viewBox="0 0 16 16" xmlns="http://www.w3.org/2000/svg">
 <style id="current-color-scheme" type="text/css">.ColorScheme-Text {
            color:#eff0f1;
        }</style>
 <g class="ColorScheme-Text" fill="currentColor">
  <path d="m1.7324 5.9055v1h5.4941v-1z"/>
  <path d="m1.7324 10.005v1h5.6719v-1z"/>
  <path d="m1.7324 1.9126v1h11.08v-1z"/>
  <path d="m11.906 4.2148v9h1v-9z"/>
  <path d="m12.367 3.5938a0.5 0.5 0 0 0-0.32617 0.15234l-2.6348 2.7441a0.5 0.5 0 0 0 0.015625 0.70703 0.5 0.5 0 0 0 0.70703-0.015625l2.6328-2.7422a0.5 0.5 0 0 0-0.01367-0.70703 0.5 0.5 0 0 0-0.38086-0.13867z"/>
  <path d="m12.443 3.6562a0.5 0.5 0 0 0-0.33398 0.13867 0.5 0.5 0 0 0-0.01563 0.70703l2.5625 2.6855a0.5 0.5 0 0 0 0.70703 0.017578 0.5 0.5 0 0 0 0.01563-0.70703l-2.5625-2.6875a0.5 0.5 0 0 0-0.37305-0.1543z"/>
 </g>
</svg>
